<svg width="96" height="96" xmlns="http://www.w3.org/2000/svg" xmlns:xlink="http://www.w3.org/1999/xlink" overflow="hidden"><defs><clipPath id="clip0"><rect x="379" y="329" width="96" height="96"/></clipPath></defs><g clip-path="url(#clip0)" transform="translate(-379 -329)"><path d="M467 368 463 368 463 357C463 354.8 461.2 353 459 353L387 353C384.8 353 383 354.8 383 357L383 397C383 399.2 384.8 401 387 401L459 401C461.2 401 463 399.2 463 397L463 386 467 386C469.2 386 471 384.2 471 382L471 372C471 369.8 469.2 368 467 368ZM457 395 389 395 389 359 457 359 457 395Z" fill="#7F7F7F"/><path d="M393 363 401 363 401 391 393 391Z" fill="#7F7F7F"/></g></svg>